<svg id="svg" version="1.1" xmlns="http://www.w3.org/2000/svg" xmlns:xlink="http://www.w3.org/1999/xlink" width="400" height="400" viewBox="0, 0, 400,400"><g id="svgg"><path id="path0" d="M99.850 99.850 C 43.299 156.401,0.400 199.602,0.400 200.000 C 0.400 200.925,199.075 399.600,200.000 399.600 C 200.925 399.600,399.600 200.925,399.600 200.000 C 399.600 199.075,200.925 0.400,200.000 0.400 C 199.602 0.400,156.401 43.299,99.850 99.850 M292.200 108.000 L 384.200 200.000 292.100 292.100 L 200.000 384.200 107.900 292.100 L 15.800 200.000 107.800 108.000 C 158.400 57.400,199.890 16.000,200.000 16.000 C 200.110 16.000,241.600 57.400,292.200 108.000 M191.800 83.187 C 182.726 84.008,179.468 84.531,171.400 86.462 C 166.329 87.676,158.241 90.402,153.800 92.395 C 125.053 105.292,105.290 125.055,92.395 153.800 C 83.497 173.633,80.528 201.374,85.051 222.400 C 87.094 231.895,89.554 239.867,92.395 246.200 C 105.292 274.947,125.053 294.708,153.800 307.605 C 181.546 320.053,218.454 320.053,246.200 307.605 C 274.947 294.708,294.708 274.947,307.605 246.200 C 307.803 245.760,308.403 244.320,308.939 243.000 C 320.088 215.546,319.564 180.455,307.605 153.800 C 294.708 125.053,274.945 105.290,246.200 92.395 C 230.963 85.560,208.185 81.704,191.800 83.187 M215.400 94.577 C 269.213 103.685,306.200 146.628,306.200 200.000 C 306.200 228.465,296.603 252.538,276.819 273.700 C 273.359 277.401,273.672 277.370,267.800 274.605 C 267.140 274.295,265.430 273.573,264.000 273.002 C 262.570 272.431,261.040 271.802,260.600 271.603 C 259.758 271.223,253.865 268.742,247.800 266.215 C 245.820 265.390,243.660 264.475,243.000 264.182 C 242.340 263.890,240.630 263.181,239.200 262.607 C 237.770 262.033,236.240 261.402,235.800 261.203 C 235.360 261.004,233.020 260.011,230.600 258.995 C 228.180 257.980,225.840 256.992,225.400 256.800 C 224.201 256.278,216.192 252.919,213.000 251.600 C 205.846 248.644,201.341 246.731,200.700 246.378 C 200.251 246.131,199.749 246.131,199.300 246.378 C 198.659 246.731,194.154 248.644,187.000 251.600 C 183.808 252.919,175.799 256.278,174.600 256.800 C 174.160 256.992,171.820 257.980,169.400 258.995 C 166.980 260.011,164.640 261.004,164.200 261.203 C 163.760 261.402,162.230 262.033,160.800 262.607 C 159.370 263.181,157.660 263.890,157.000 264.182 C 156.340 264.475,154.180 265.390,152.200 266.215 C 146.135 268.742,140.242 271.223,139.400 271.603 C 138.960 271.802,137.430 272.431,136.000 273.002 C 134.570 273.573,132.860 274.295,132.200 274.605 C 126.328 277.370,126.641 277.401,123.181 273.700 C 91.462 239.772,84.548 192.167,105.396 151.248 C 121.731 119.187,152.923 98.121,190.400 93.841 C 194.114 93.417,211.583 93.931,215.400 94.577 M194.084 128.100 L 194.200 131.400 195.515 131.526 L 196.829 131.653 196.715 135.310 L 196.600 138.968 192.000 140.010 C 176.273 143.574,167.213 155.291,167.203 172.081 L 167.200 176.762 165.377 178.016 C 160.835 181.141,160.058 184.000,163.751 184.000 C 167.402 184.000,167.228 183.334,167.106 196.848 L 167.000 208.600 161.280 208.711 L 155.561 208.822 155.680 211.111 L 155.800 213.400 200.000 213.400 L 244.200 213.400 244.320 211.111 L 244.439 208.822 238.720 208.711 L 233.000 208.600 232.894 196.848 C 232.772 183.334,232.598 184.000,236.249 184.000 C 239.942 184.000,239.165 181.141,234.623 178.016 L 232.800 176.762 232.797 172.081 C 232.787 155.291,223.727 143.574,208.000 140.010 L 203.400 138.968 203.285 135.310 L 203.171 131.653 204.485 131.526 L 205.800 131.400 205.916 128.100 L 206.032 124.800 200.000 124.800 L 193.968 124.800 194.084 128.100 M203.220 145.100 C 204.462 146.516,207.705 151.892,208.376 153.646 C 208.661 154.391,209.137 155.554,209.433 156.232 C 210.421 158.487,211.754 164.406,211.363 164.797 C 211.132 165.028,209.617 165.026,207.395 164.792 C 205.418 164.584,202.090 164.414,200.000 164.414 C 197.910 164.414,194.582 164.584,192.605 164.792 C 190.383 165.026,188.868 165.028,188.637 164.797 C 188.246 164.406,189.579 158.487,190.567 156.232 C 190.863 155.554,191.339 154.391,191.624 153.646 C 192.295 151.892,195.538 146.516,196.780 145.100 C 197.618 144.144,198.040 144.000,200.000 144.000 C 201.960 144.000,202.382 144.144,203.220 145.100 M194.400 144.560 C 194.400 144.648,193.744 145.683,192.942 146.860 C 189.969 151.224,187.034 158.697,186.449 163.393 L 186.200 165.386 183.000 165.882 C 181.240 166.155,178.208 166.714,176.262 167.123 C 172.032 168.014,172.063 168.048,173.226 163.767 C 175.850 154.113,181.577 147.879,190.400 145.073 C 192.137 144.521,194.400 144.231,194.400 144.560 M209.325 145.028 C 216.233 147.117,221.212 151.197,224.179 157.200 C 224.777 158.410,225.411 159.679,225.587 160.021 C 226.177 161.163,227.637 166.928,227.455 167.401 C 227.323 167.745,226.345 167.672,223.738 167.123 C 221.792 166.714,218.760 166.155,217.000 165.882 L 213.800 165.386 213.551 163.393 C 212.966 158.697,210.031 151.224,207.058 146.860 C 205.102 143.989,205.317 143.815,209.325 145.028 M211.120 168.117 C 211.421 168.357,211.590 169.131,211.520 169.953 L 211.400 171.375 200.000 171.375 L 188.600 171.375 188.480 169.953 C 188.409 169.111,188.581 168.348,188.902 168.081 C 189.956 167.206,210.017 167.239,211.120 168.117 M186.200 170.009 L 186.200 171.752 182.200 172.489 C 180.000 172.894,176.856 173.577,175.213 174.006 C 171.800 174.898,171.470 174.751,171.831 172.499 L 172.091 170.869 175.746 170.036 C 177.756 169.578,180.655 169.012,182.188 168.779 C 183.722 168.547,185.061 168.272,185.163 168.170 C 185.716 167.617,186.200 168.476,186.200 170.009 M217.922 168.797 C 219.395 169.020,222.244 169.578,224.254 170.036 L 227.909 170.869 228.169 172.499 C 228.530 174.751,228.200 174.898,224.787 174.006 C 223.144 173.577,220.000 172.895,217.800 172.491 L 213.800 171.757 213.672 170.440 C 213.503 168.703,213.855 167.859,214.625 168.154 C 214.965 168.285,216.449 168.574,217.922 168.797 M211.285 178.519 C 211.455 178.784,211.550 185.660,211.497 193.800 L 211.400 208.600 200.000 208.600 L 188.600 208.600 188.488 194.200 C 188.351 176.441,187.990 178.073,192.104 177.869 C 198.209 177.566,210.950 177.998,211.285 178.519 M186.200 193.605 L 186.200 208.600 179.230 208.710 C 173.921 208.793,172.182 208.698,171.936 208.310 C 171.328 207.352,171.533 185.335,172.164 183.825 C 173.046 181.713,181.987 178.206,185.600 178.553 C 186.122 178.603,186.200 180.569,186.200 193.605 M218.989 179.385 C 223.353 180.220,227.120 182.111,227.836 183.825 C 228.467 185.335,228.672 207.352,228.064 208.310 C 227.818 208.698,226.079 208.793,220.770 208.710 L 213.800 208.600 213.695 194.002 C 213.580 178.002,213.563 178.204,214.989 178.561 C 215.529 178.697,217.329 179.068,218.989 179.385 M158.400 238.400 C 158.400 250.500,158.468 260.400,158.551 260.400 C 158.724 260.400,161.404 259.343,162.600 258.803 C 163.040 258.604,165.380 257.611,167.800 256.595 C 170.220 255.580,172.560 254.590,173.000 254.395 C 173.440 254.201,175.780 253.211,178.200 252.195 C 180.620 251.180,182.960 250.190,183.400 249.995 C 183.840 249.801,186.180 248.811,188.600 247.796 C 191.020 246.780,194.410 245.331,196.134 244.575 C 197.857 243.819,199.597 243.200,200.000 243.200 C 200.403 243.200,202.143 243.819,203.866 244.575 C 205.590 245.331,208.980 246.780,211.400 247.796 C 213.820 248.811,216.160 249.801,216.600 249.995 C 217.040 250.190,219.380 251.180,221.800 252.195 C 224.220 253.211,226.560 254.201,227.000 254.395 C 227.440 254.590,229.780 255.580,232.200 256.595 C 234.620 257.611,236.960 258.604,237.400 258.803 C 238.596 259.343,241.276 260.400,241.449 260.400 C 241.532 260.400,241.600 250.500,241.600 238.400 L 241.600 216.400 200.000 216.400 L 158.400 216.400 158.400 238.400 M237.200 237.443 L 237.200 253.687 236.100 253.413 C 235.495 253.262,234.460 252.895,233.800 252.597 C 233.140 252.299,230.710 251.257,228.400 250.280 C 226.090 249.304,221.770 247.478,218.800 246.223 C 215.830 244.968,212.860 243.688,212.200 243.379 C 211.540 243.071,209.200 242.087,207.000 241.194 C 204.800 240.301,202.522 239.307,201.938 238.985 C 201.354 238.663,200.482 238.400,200.000 238.400 C 199.518 238.400,198.646 238.663,198.062 238.985 C 197.478 239.307,195.200 240.301,193.000 241.194 C 190.800 242.087,188.460 243.071,187.800 243.379 C 187.140 243.688,184.170 244.968,181.200 246.223 C 178.230 247.478,173.910 249.304,171.600 250.280 C 169.290 251.257,166.860 252.299,166.200 252.597 C 165.540 252.895,164.505 253.262,163.900 253.413 L 162.800 253.687 162.800 237.443 L 162.800 221.200 200.000 221.200 L 237.200 221.200 237.200 237.443 M201.740 256.970 C 202.433 257.283,204.350 258.103,206.000 258.793 C 207.650 259.483,209.360 260.205,209.800 260.398 C 210.240 260.591,212.580 261.580,215.000 262.595 C 217.420 263.611,219.760 264.604,220.200 264.803 C 220.640 265.002,222.170 265.630,223.600 266.200 C 225.030 266.770,226.560 267.398,227.000 267.597 C 227.440 267.796,229.780 268.789,232.200 269.804 C 240.118 273.125,244.186 274.843,245.000 275.207 C 245.689 275.515,258.288 280.753,263.000 282.689 C 265.292 283.632,265.447 283.869,264.364 284.771 C 263.041 285.873,262.608 285.820,258.551 284.061 C 256.598 283.214,253.650 281.966,252.000 281.287 C 248.535 279.861,240.576 276.524,239.400 276.005 C 238.960 275.810,236.620 274.820,234.200 273.805 C 231.780 272.789,229.440 271.798,229.000 271.602 C 228.560 271.406,224.870 269.862,220.800 268.171 C 214.406 265.515,208.108 262.870,203.800 261.032 C 203.140 260.750,202.015 260.291,201.300 260.011 C 199.955 259.485,199.710 259.534,196.200 261.032 C 191.892 262.870,185.594 265.515,179.200 268.171 C 175.130 269.862,171.440 271.406,171.000 271.602 C 170.560 271.798,168.220 272.789,165.800 273.805 C 163.380 274.820,161.040 275.810,160.600 276.005 C 159.424 276.524,151.465 279.861,148.000 281.287 C 146.350 281.966,143.402 283.214,141.449 284.061 C 137.392 285.820,136.959 285.873,135.636 284.771 C 134.553 283.869,134.708 283.632,137.000 282.689 C 141.712 280.753,154.311 275.515,155.000 275.207 C 155.814 274.843,159.882 273.125,167.800 269.804 C 170.220 268.789,172.560 267.796,173.000 267.597 C 173.440 267.398,174.970 266.770,176.400 266.200 C 177.830 265.630,179.360 265.002,179.800 264.803 C 180.240 264.604,182.580 263.611,185.000 262.595 C 187.420 261.580,189.760 260.591,190.200 260.398 C 190.640 260.205,192.350 259.483,194.000 258.795 C 195.650 258.106,197.540 257.289,198.200 256.980 C 199.719 256.269,200.186 256.267,201.740 256.970 M204.200 267.374 C 206.180 268.169,208.160 268.990,208.600 269.198 C 209.040 269.405,211.470 270.397,214.000 271.400 C 216.530 272.403,218.960 273.393,219.400 273.600 C 219.840 273.807,222.270 274.797,224.800 275.800 C 227.330 276.803,229.760 277.794,230.200 278.000 C 231.011 278.381,238.353 281.410,244.200 283.775 C 245.960 284.487,247.670 285.182,248.000 285.321 C 248.330 285.459,250.477 286.344,252.771 287.286 C 255.064 288.229,257.000 289.183,257.073 289.407 C 257.344 290.244,247.108 295.802,240.045 298.653 C 209.224 311.092,173.095 308.346,145.498 291.466 C 142.136 289.410,142.152 289.373,147.229 287.286 C 149.523 286.344,151.670 285.459,152.000 285.321 C 152.330 285.182,154.040 284.487,155.800 283.775 C 161.647 281.410,168.989 278.381,169.800 278.000 C 170.240 277.794,172.670 276.803,175.200 275.800 C 177.730 274.797,180.160 273.807,180.600 273.600 C 181.040 273.393,183.380 272.437,185.800 271.476 C 188.220 270.514,190.470 269.614,190.800 269.477 C 191.130 269.340,193.290 268.432,195.600 267.460 C 197.910 266.489,199.980 265.746,200.200 265.811 C 200.420 265.876,202.220 266.579,204.200 267.374 " stroke="none" fill="#f9fafa" fill-rule="evenodd"></path><path id="path1" d="M108.000 108.200 L 16.200 200.000 108.100 291.900 L 200.000 383.800 291.900 291.900 L 383.800 200.000 292.000 108.200 C 241.510 57.710,200.110 16.400,200.000 16.400 C 199.890 16.400,158.490 57.710,108.000 108.200 M214.200 83.405 C 223.159 84.454,239.171 88.338,241.400 90.003 C 241.620 90.168,242.250 90.434,242.800 90.596 C 244.232 91.016,245.943 91.774,251.600 94.499 C 274.939 105.737,294.263 125.061,305.501 148.400 C 308.226 154.057,308.984 155.768,309.404 157.200 C 309.566 157.750,309.832 158.380,309.997 158.600 C 310.396 159.134,313.393 168.728,314.184 172.000 C 318.422 189.550,318.422 210.450,314.184 228.000 C 313.393 231.272,310.396 240.866,309.997 241.400 C 309.832 241.620,309.566 242.250,309.404 242.800 C 308.587 245.586,303.625 255.718,300.687 260.600 C 289.041 279.952,271.660 295.852,251.600 305.503 C 245.617 308.382,243.792 309.199,243.340 309.202 C 243.153 309.204,242.524 309.453,241.943 309.757 C 240.634 310.440,231.518 313.334,228.000 314.184 C 210.450 318.422,189.550 318.422,172.000 314.184 C 168.728 313.393,159.134 310.396,158.600 309.997 C 158.380 309.832,157.750 309.566,157.200 309.404 C 154.414 308.587,144.282 303.625,139.400 300.687 C 123.164 290.916,109.008 276.762,99.307 260.600 C 96.365 255.698,91.409 245.572,90.596 242.800 C 90.434 242.250,90.168 241.620,90.003 241.400 C 89.604 240.866,86.607 231.272,85.816 228.000 C 81.578 210.450,81.578 189.550,85.816 172.000 C 86.607 168.728,89.604 159.134,90.003 158.600 C 90.168 158.380,90.434 157.750,90.596 157.200 C 91.016 155.768,91.774 154.057,94.499 148.400 C 105.737 125.061,125.061 105.737,148.400 94.499 C 154.057 91.774,155.768 91.016,157.200 90.596 C 157.750 90.434,158.380 90.168,158.600 90.003 C 159.134 89.604,168.728 86.607,172.000 85.816 C 185.273 82.611,200.154 81.761,214.200 83.405 M190.000 94.429 C 182.410 95.067,171.230 97.492,165.200 99.809 C 164.430 100.105,162.540 100.832,161.000 101.425 C 134.406 111.662,111.662 134.406,101.425 161.000 C 100.832 162.540,100.105 164.430,99.809 165.200 C 92.226 184.937,92.226 215.063,99.809 234.800 C 100.105 235.570,100.832 237.460,101.425 239.000 C 106.342 251.774,120.276 272.611,126.242 276.113 C 126.686 276.374,133.907 273.610,140.600 270.617 C 141.260 270.322,143.600 269.333,145.800 268.420 C 148.000 267.507,150.160 266.602,150.600 266.408 C 151.040 266.214,152.570 265.578,154.000 264.994 C 155.430 264.410,157.140 263.687,157.800 263.387 C 158.460 263.086,160.170 262.373,161.600 261.802 C 163.030 261.231,164.560 260.602,165.000 260.403 C 165.440 260.204,167.780 259.211,170.200 258.195 C 172.620 257.180,174.960 256.191,175.400 255.998 C 175.840 255.805,177.550 255.086,179.200 254.400 C 180.850 253.714,182.560 252.993,183.000 252.796 C 183.440 252.600,185.600 251.693,187.800 250.780 C 190.000 249.867,192.340 248.879,193.000 248.585 C 200.196 245.377,199.804 245.377,207.000 248.585 C 207.660 248.879,210.000 249.867,212.200 250.780 C 214.400 251.693,216.560 252.600,217.000 252.796 C 217.440 252.993,219.150 253.714,220.800 254.400 C 222.450 255.086,224.160 255.805,224.600 255.998 C 225.040 256.191,227.380 257.180,229.800 258.195 C 232.220 259.211,234.560 260.204,235.000 260.403 C 235.440 260.602,236.970 261.231,238.400 261.802 C 239.830 262.373,241.540 263.086,242.200 263.387 C 242.860 263.687,244.570 264.410,246.000 264.994 C 247.430 265.578,248.960 266.214,249.400 266.408 C 249.840 266.602,252.000 267.507,254.200 268.420 C 256.400 269.333,258.740 270.322,259.400 270.617 C 266.093 273.610,273.314 276.374,273.758 276.113 C 279.724 272.611,293.658 251.774,298.575 239.000 C 299.168 237.460,299.895 235.570,300.191 234.800 C 307.774 215.063,307.774 184.937,300.191 165.200 C 299.895 164.430,299.168 162.540,298.575 161.000 C 288.338 134.406,265.594 111.662,239.000 101.425 C 237.460 100.832,235.570 100.105,234.800 99.809 C 222.945 95.254,205.342 93.140,190.000 94.429 M206.000 128.200 C 206.000 131.987,205.996 132.000,205.000 132.000 C 204.007 132.000,204.000 132.027,204.000 135.600 L 204.000 139.200 205.500 139.206 C 209.092 139.221,215.414 141.484,219.669 144.278 C 228.215 149.891,232.779 159.258,233.559 172.786 L 233.800 176.971 235.126 177.863 C 239.890 181.068,240.475 184.800,236.213 184.800 L 233.600 184.800 233.600 196.388 L 233.600 207.977 238.900 208.088 L 244.200 208.200 244.318 211.100 L 244.435 214.000 200.000 214.000 L 155.565 214.000 155.682 211.100 L 155.800 208.200 161.100 208.088 L 166.400 207.977 166.400 196.407 L 166.400 184.837 163.700 184.718 C 159.390 184.529,160.165 181.031,165.294 177.527 C 166.213 176.899,166.295 176.555,166.524 172.327 C 167.236 159.205,171.838 149.856,180.331 144.278 C 184.586 141.484,190.908 139.221,194.500 139.206 L 196.000 139.200 196.000 135.600 C 196.000 132.027,195.993 132.000,195.000 132.000 C 194.004 132.000,194.000 131.987,194.000 128.200 L 194.000 124.400 200.000 124.400 L 206.000 124.400 206.000 128.200 M197.139 145.500 C 193.879 149.049,189.795 157.951,189.321 162.540 L 189.109 164.600 200.000 164.600 L 210.891 164.600 210.679 162.540 C 209.904 155.034,203.644 144.400,200.000 144.400 C 198.493 144.400,197.962 144.604,197.139 145.500 M189.800 145.778 C 182.154 148.311,176.839 153.874,174.226 162.077 C 172.839 166.433,172.650 167.743,173.453 167.435 C 174.924 166.871,183.355 165.200,184.732 165.200 C 185.295 165.200,185.647 164.894,185.768 164.300 C 185.869 163.805,186.040 162.950,186.148 162.400 C 186.875 158.703,187.299 157.405,189.415 152.400 C 190.506 149.819,192.993 145.669,193.786 145.106 C 194.610 144.521,192.542 144.870,189.800 145.778 M206.214 145.106 C 207.007 145.669,209.494 149.819,210.585 152.400 C 212.701 157.405,213.125 158.703,213.852 162.400 C 213.960 162.950,214.131 163.805,214.232 164.300 C 214.353 164.894,214.705 165.200,215.268 165.200 C 216.645 165.200,225.076 166.871,226.547 167.435 C 227.350 167.743,227.161 166.433,225.774 162.077 C 223.848 156.029,219.612 150.429,215.000 147.833 C 212.158 146.233,204.419 143.832,206.214 145.106 M194.600 167.856 C 189.628 168.104,189.200 168.251,189.200 169.718 L 189.200 171.000 200.000 171.000 L 210.800 171.000 210.800 169.732 C 210.800 168.666,210.624 168.430,209.700 168.253 C 208.156 167.957,197.964 167.689,194.600 167.856 M182.325 169.008 C 182.211 169.122,180.696 169.480,178.959 169.803 C 173.164 170.879,172.512 171.139,172.244 172.481 C 171.878 174.310,172.114 174.367,175.935 173.375 C 177.888 172.868,180.636 172.327,182.043 172.174 C 185.358 171.812,186.000 171.457,186.000 169.986 C 186.000 168.861,183.214 168.119,182.325 169.008 M214.000 169.947 C 214.000 171.461,214.619 171.810,217.957 172.174 C 219.364 172.327,222.112 172.868,224.065 173.375 C 227.886 174.367,228.122 174.310,227.756 172.481 C 227.490 171.150,227.037 170.966,221.000 169.739 C 214.888 168.496,214.000 168.522,214.000 169.947 M192.500 178.298 L 189.200 178.432 189.200 193.216 L 189.200 208.000 200.000 208.000 L 210.800 208.000 210.800 193.261 L 210.800 178.523 205.937 178.261 C 201.224 178.008,199.475 178.013,192.500 178.298 M180.000 180.014 C 171.769 182.249,172.000 181.780,172.000 196.254 L 172.000 208.000 179.000 208.000 L 186.000 208.000 186.000 193.600 L 186.000 179.200 184.300 179.254 C 183.365 179.284,181.430 179.626,180.000 180.014 M214.000 193.600 L 214.000 208.000 221.000 208.000 L 228.000 208.000 228.000 196.254 C 228.000 182.849,228.058 183.089,224.439 181.524 C 222.017 180.477,217.016 179.200,215.336 179.200 L 214.000 179.200 214.000 193.600 M242.303 238.700 C 242.421 263.778,242.736 261.680,239.096 260.033 C 238.163 259.611,235.420 258.432,233.000 257.412 C 230.580 256.392,228.240 255.399,227.800 255.205 C 227.360 255.010,225.020 254.020,222.600 253.005 C 217.266 250.766,217.061 250.678,214.800 249.666 C 213.810 249.223,211.830 248.389,210.400 247.812 C 208.970 247.236,207.440 246.603,207.000 246.406 C 203.709 244.930,200.389 243.600,200.000 243.600 C 199.611 243.600,196.291 244.930,193.000 246.406 C 192.560 246.603,191.030 247.236,189.600 247.812 C 188.170 248.389,186.190 249.223,185.200 249.666 C 182.939 250.678,182.734 250.766,177.400 253.005 C 174.980 254.020,172.640 255.010,172.200 255.205 C 171.760 255.399,169.420 256.392,167.000 257.412 C 164.580 258.432,161.837 259.611,160.904 260.033 C 157.277 261.674,157.600 263.743,157.600 238.867 C 157.600 226.803,157.721 216.813,157.868 216.665 C 158.016 216.517,177.051 216.442,200.168 216.498 L 242.200 216.600 242.303 238.700 M163.200 237.133 C 163.200 245.677,163.305 252.771,163.433 252.899 C 163.642 253.108,165.177 252.607,167.400 251.603 C 167.840 251.404,170.180 250.408,172.600 249.388 C 175.020 248.369,177.540 247.297,178.200 247.005 C 178.860 246.714,180.570 246.001,182.000 245.420 C 183.430 244.839,184.960 244.202,185.400 244.003 C 188.138 242.767,196.136 239.394,197.900 238.731 C 200.332 237.818,202.212 238.411,214.600 244.003 C 215.040 244.202,216.570 244.839,218.000 245.420 C 219.430 246.001,221.140 246.714,221.800 247.005 C 222.460 247.297,224.980 248.369,227.400 249.388 C 229.820 250.408,232.160 251.404,232.600 251.603 C 234.823 252.607,236.358 253.108,236.567 252.899 C 236.695 252.771,236.800 245.677,236.800 237.133 L 236.800 221.600 200.000 221.600 L 163.200 221.600 163.200 237.133 M199.200 257.082 C 198.574 257.302,190.792 260.574,189.400 261.203 C 188.960 261.402,185.090 263.024,180.800 264.807 C 176.510 266.590,172.460 268.289,171.800 268.582 C 171.140 268.875,168.980 269.790,167.000 270.615 C 160.935 273.142,155.042 275.623,154.200 276.003 C 153.760 276.202,152.230 276.833,150.800 277.407 C 149.370 277.981,147.660 278.691,147.000 278.985 C 146.340 279.279,144.000 280.272,141.800 281.191 C 139.600 282.110,137.305 283.072,136.700 283.329 C 135.351 283.901,135.313 284.286,136.549 284.850 C 137.348 285.214,138.188 284.987,141.849 283.420 C 144.242 282.395,147.460 281.036,149.000 280.400 C 152.548 278.934,160.347 275.660,161.400 275.195 C 162.309 274.794,168.849 272.045,174.200 269.815 C 176.180 268.990,178.340 268.075,179.000 267.782 C 179.660 267.490,181.370 266.781,182.800 266.207 C 184.230 265.633,185.760 265.002,186.200 264.803 C 186.640 264.604,188.980 263.608,191.400 262.588 C 193.820 261.569,196.430 260.443,197.200 260.088 C 197.970 259.732,199.230 259.440,200.000 259.440 C 200.770 259.440,202.030 259.732,202.800 260.088 C 203.570 260.443,206.180 261.569,208.600 262.588 C 211.020 263.608,213.360 264.604,213.800 264.803 C 214.240 265.002,215.770 265.633,217.200 266.207 C 218.630 266.781,220.340 267.490,221.000 267.782 C 221.660 268.075,223.820 268.990,225.800 269.815 C 231.151 272.045,237.691 274.794,238.600 275.195 C 239.653 275.660,247.452 278.934,251.000 280.400 C 252.540 281.036,255.758 282.395,258.151 283.420 C 261.812 284.987,262.652 285.214,263.451 284.850 C 264.687 284.286,264.649 283.901,263.300 283.329 C 262.695 283.072,260.400 282.110,258.200 281.191 C 256.000 280.272,253.660 279.279,253.000 278.985 C 252.340 278.691,250.630 277.981,249.200 277.407 C 247.770 276.833,246.240 276.202,245.800 276.003 C 244.958 275.623,239.065 273.142,233.000 270.615 C 231.020 269.790,228.860 268.875,228.200 268.582 C 227.540 268.289,223.490 266.590,219.200 264.807 C 214.910 263.024,211.040 261.402,210.600 261.203 C 203.622 258.051,200.083 256.772,199.200 257.082 M194.800 268.259 C 192.490 269.232,190.330 270.140,190.000 270.277 C 189.670 270.414,187.420 271.314,185.000 272.276 C 182.580 273.237,180.240 274.193,179.800 274.400 C 179.360 274.607,176.930 275.597,174.400 276.600 C 171.870 277.603,169.440 278.595,169.000 278.802 C 168.286 279.140,162.984 281.316,159.800 282.579 C 159.140 282.840,158.060 283.287,157.400 283.572 C 156.740 283.856,155.390 284.422,154.400 284.829 C 147.856 287.520,144.911 288.715,144.300 288.930 C 143.915 289.065,143.600 289.344,143.600 289.551 C 143.600 290.388,154.761 296.172,161.053 298.595 C 162.564 299.177,164.430 299.895,165.200 300.191 C 174.253 303.669,188.186 305.992,200.000 305.992 C 211.814 305.992,225.747 303.669,234.800 300.191 C 235.570 299.895,237.436 299.177,238.947 298.595 C 245.239 296.172,256.400 290.388,256.400 289.551 C 256.400 289.344,256.085 289.065,255.700 288.930 C 255.089 288.715,252.144 287.520,245.600 284.829 C 244.610 284.422,243.260 283.856,242.600 283.572 C 241.940 283.287,240.860 282.840,240.200 282.579 C 237.016 281.316,231.714 279.140,231.000 278.802 C 230.560 278.595,228.130 277.603,225.600 276.600 C 223.070 275.597,220.640 274.607,220.200 274.400 C 219.760 274.193,217.330 273.203,214.800 272.200 C 212.270 271.197,209.840 270.208,209.400 270.002 C 201.056 266.108,200.163 266.002,194.800 268.259 " stroke="none" fill="#04446c" fill-rule="evenodd"></path><path id="path2" d="M192.505 83.087 C 193.114 83.179,194.014 83.177,194.505 83.082 C 194.997 82.987,194.500 82.911,193.400 82.914 C 192.300 82.917,191.897 82.995,192.505 83.087 M205.705 83.087 C 206.314 83.179,207.214 83.177,207.705 83.082 C 208.197 82.987,207.700 82.911,206.600 82.914 C 205.500 82.917,205.097 82.995,205.705 83.087 M187.300 83.476 C 187.685 83.576,188.315 83.576,188.700 83.476 C 189.085 83.375,188.770 83.293,188.000 83.293 C 187.230 83.293,186.915 83.375,187.300 83.476 M211.300 83.476 C 211.685 83.576,212.315 83.576,212.700 83.476 C 213.085 83.375,212.770 83.293,212.000 83.293 C 211.230 83.293,210.915 83.375,211.300 83.476 M184.500 83.876 C 184.885 83.976,185.515 83.976,185.900 83.876 C 186.285 83.775,185.970 83.693,185.200 83.693 C 184.430 83.693,184.115 83.775,184.500 83.876 M214.100 83.876 C 214.485 83.976,215.115 83.976,215.500 83.876 C 215.885 83.775,215.570 83.693,214.800 83.693 C 214.030 83.693,213.715 83.775,214.100 83.876 M175.800 85.200 C 174.781 85.638,175.832 85.638,177.200 85.200 C 178.004 84.943,178.043 84.877,177.400 84.868 C 176.960 84.862,176.240 85.011,175.800 85.200 M222.800 85.200 C 224.168 85.638,225.219 85.638,224.200 85.200 C 223.760 85.011,223.040 84.862,222.600 84.868 C 221.957 84.877,221.996 84.943,222.800 85.200 M192.707 93.890 C 193.426 93.979,194.506 93.977,195.107 93.886 C 195.708 93.795,195.120 93.722,193.800 93.724 C 192.480 93.726,191.988 93.801,192.707 93.890 M205.107 93.890 C 205.826 93.979,206.906 93.977,207.507 93.886 C 208.108 93.795,207.520 93.722,206.200 93.724 C 204.880 93.726,204.388 93.801,205.107 93.890 M187.905 94.283 C 188.402 94.379,189.122 94.375,189.505 94.275 C 189.887 94.175,189.480 94.096,188.600 94.101 C 187.720 94.105,187.407 94.187,187.905 94.283 M210.705 94.283 C 211.202 94.379,211.922 94.375,212.305 94.275 C 212.687 94.175,212.280 94.096,211.400 94.101 C 210.520 94.105,210.207 94.187,210.705 94.283 M124.591 124.900 L 121.400 128.200 124.700 125.009 C 126.515 123.255,128.000 121.770,128.000 121.709 C 128.000 121.418,127.554 121.835,124.591 124.900 M275.000 124.800 C 276.750 126.560,278.271 128.000,278.381 128.000 C 278.491 128.000,277.150 126.560,275.400 124.800 C 273.650 123.040,272.129 121.600,272.019 121.600 C 271.909 121.600,273.250 123.040,275.000 124.800 M196.544 135.200 C 196.544 137.290,196.612 138.145,196.694 137.100 C 196.776 136.055,196.776 134.345,196.694 133.300 C 196.612 132.255,196.544 133.110,196.544 135.200 M203.344 135.200 C 203.344 137.290,203.412 138.145,203.494 137.100 C 203.576 136.055,203.576 134.345,203.494 133.300 C 203.412 132.255,203.344 133.110,203.344 135.200 M192.925 144.689 C 193.913 144.837,193.986 144.940,193.525 145.529 C 193.054 146.131,193.072 146.143,193.700 145.651 C 194.759 144.820,194.544 144.393,193.100 144.460 C 191.854 144.517,191.847 144.527,192.925 144.689 M205.600 144.751 C 205.600 144.944,205.915 145.349,206.300 145.651 C 206.928 146.143,206.946 146.131,206.475 145.529 C 206.014 144.940,206.087 144.837,207.075 144.689 C 208.153 144.527,208.146 144.517,206.900 144.460 C 206.185 144.427,205.600 144.558,205.600 144.751 M191.665 153.417 C 190.995 154.888,191.123 155.202,191.847 153.865 C 192.186 153.240,192.388 152.654,192.296 152.563 C 192.205 152.471,191.921 152.856,191.665 153.417 M207.628 152.600 C 207.628 152.820,207.886 153.450,208.200 154.000 C 208.514 154.550,208.772 154.820,208.772 154.600 C 208.772 154.380,208.514 153.750,208.200 153.200 C 207.886 152.650,207.628 152.380,207.628 152.600 M188.534 164.000 C 188.583 164.735,188.840 165.014,189.506 165.053 C 190.211 165.095,190.238 165.067,189.631 164.929 C 189.201 164.831,188.764 164.357,188.659 163.875 C 188.501 163.146,188.480 163.167,188.534 164.000 M211.232 163.872 C 211.211 164.445,210.891 164.804,210.300 164.918 L 209.400 165.091 210.313 165.146 C 211.260 165.202,211.827 164.403,211.469 163.513 C 211.356 163.231,211.249 163.392,211.232 163.872 M186.032 164.271 C 186.014 164.750,185.685 165.224,185.300 165.324 C 184.644 165.496,184.645 165.510,185.313 165.554 C 186.088 165.604,186.598 164.731,186.269 163.913 C 186.156 163.631,186.049 163.792,186.032 164.271 M213.734 164.396 C 213.779 165.072,214.057 165.418,214.600 165.473 C 215.176 165.531,215.211 165.498,214.725 165.352 C 214.353 165.242,213.964 164.757,213.859 164.275 C 213.700 163.542,213.680 163.561,213.734 164.396 M192.705 164.683 C 193.202 164.779,193.922 164.775,194.305 164.675 C 194.687 164.575,194.280 164.496,193.400 164.501 C 192.520 164.505,192.207 164.587,192.705 164.683 M205.905 164.683 C 206.402 164.779,207.122 164.775,207.505 164.675 C 207.887 164.575,207.480 164.496,206.600 164.501 C 205.720 164.505,205.407 164.587,205.905 164.683 M198.500 167.491 C 199.325 167.578,200.675 167.578,201.500 167.491 C 202.325 167.405,201.650 167.334,200.000 167.334 C 198.350 167.334,197.675 167.405,198.500 167.491 M188.880 168.080 C 188.354 168.606,188.220 171.041,188.700 171.339 C 188.865 171.441,189.000 170.787,189.000 169.884 C 189.000 168.475,189.142 168.203,190.000 167.961 C 190.839 167.725,190.868 167.673,190.180 167.640 C 189.729 167.618,189.144 167.816,188.880 168.080 M210.000 167.961 C 210.858 168.203,211.000 168.475,211.000 169.884 C 211.000 170.787,211.135 171.441,211.300 171.339 C 212.473 170.611,211.257 167.570,209.820 167.640 C 209.132 167.673,209.161 167.725,210.000 167.961 M185.547 168.322 C 185.907 168.575,186.040 169.261,185.937 170.342 C 185.851 171.242,185.932 171.828,186.118 171.642 C 186.676 171.084,186.266 168.280,185.600 168.100 C 185.111 167.969,185.101 168.010,185.547 168.322 M213.867 168.267 C 213.497 168.636,213.531 171.510,213.907 171.743 C 214.076 171.847,214.145 171.206,214.061 170.319 C 213.959 169.249,214.091 168.588,214.453 168.359 C 214.754 168.168,214.805 168.009,214.567 168.006 C 214.328 168.003,214.013 168.120,213.867 168.267 M166.882 173.020 C 166.837 175.011,166.621 176.857,166.401 177.121 C 166.182 177.386,166.280 177.363,166.618 177.071 C 167.107 176.648,167.206 175.804,167.099 172.969 L 166.965 169.400 166.882 173.020 M232.882 173.051 C 232.813 176.116,232.912 176.790,233.500 177.251 C 234.115 177.733,234.141 177.725,233.717 177.179 C 233.450 176.836,233.173 174.958,233.099 172.979 L 232.965 169.400 232.882 173.051 M198.500 171.091 C 199.325 171.178,200.675 171.178,201.500 171.091 C 202.325 171.005,201.650 170.934,200.000 170.934 C 198.350 170.934,197.675 171.005,198.500 171.091 M190.905 171.487 C 191.514 171.579,192.414 171.577,192.905 171.482 C 193.397 171.387,192.900 171.311,191.800 171.314 C 190.700 171.317,190.297 171.395,190.905 171.487 M207.305 171.487 C 207.914 171.579,208.814 171.577,209.305 171.482 C 209.797 171.387,209.300 171.311,208.200 171.314 C 207.100 171.317,206.697 171.395,207.305 171.487 M171.726 173.569 C 171.767 174.101,172.070 174.610,172.400 174.699 C 172.796 174.806,172.846 174.749,172.546 174.530 C 172.297 174.349,171.993 173.840,171.872 173.400 C 171.699 172.769,171.668 172.805,171.726 173.569 M228.032 173.467 C 228.014 173.943,227.775 174.424,227.500 174.535 C 227.108 174.693,227.111 174.744,227.513 174.768 C 228.120 174.806,228.561 173.840,228.269 173.113 C 228.156 172.831,228.049 172.990,228.032 173.467 M85.000 176.400 C 84.848 177.091,84.807 177.741,84.909 177.842 C 85.011 177.944,85.209 177.453,85.350 176.750 C 85.683 175.083,85.360 174.760,85.000 176.400 M314.468 175.600 C 314.488 176.639,315.118 178.346,315.132 177.400 C 315.138 176.960,314.989 176.240,314.800 175.800 C 314.589 175.310,314.461 175.232,314.468 175.600 M197.500 177.896 C 198.875 177.974,201.125 177.974,202.500 177.896 C 203.875 177.818,202.750 177.754,200.000 177.754 C 197.250 177.754,196.125 177.818,197.500 177.896 M185.300 178.652 C 185.950 178.844,186.000 179.907,186.000 193.620 L 186.000 208.382 179.000 208.505 L 171.999 208.629 179.100 208.614 L 186.200 208.600 186.200 193.605 C 186.200 178.905,186.184 178.609,185.400 178.528 C 184.778 178.464,184.756 178.492,185.300 178.652 M213.782 178.902 C 213.676 179.178,213.637 185.973,213.695 194.002 L 213.800 208.600 220.900 208.614 L 228.001 208.629 221.000 208.505 L 214.000 208.382 214.000 193.620 C 214.000 179.898,214.049 178.846,214.700 178.676 C 215.356 178.504,215.355 178.490,214.687 178.446 C 214.296 178.421,213.888 178.626,213.782 178.902 M188.592 193.600 L 188.600 208.600 200.000 208.600 L 211.400 208.600 211.408 193.600 L 211.415 178.600 211.303 193.500 L 211.190 208.400 200.000 208.400 L 188.810 208.400 188.697 193.500 L 188.585 178.600 188.592 193.600 M161.118 184.079 C 161.273 184.232,162.570 184.412,164.000 184.479 L 166.600 184.600 166.706 196.489 L 166.812 208.378 161.306 208.505 L 155.800 208.633 161.400 208.616 L 167.000 208.600 167.106 196.848 C 167.228 183.373,167.430 184.115,163.596 183.932 C 162.078 183.859,160.963 183.925,161.118 184.079 M236.334 183.896 C 232.583 184.092,232.772 183.381,232.894 196.848 L 233.000 208.600 238.800 208.618 L 244.600 208.635 238.894 208.507 L 233.188 208.378 233.294 196.489 L 233.400 184.600 236.000 184.479 C 237.430 184.412,238.771 184.187,238.980 183.979 C 239.189 183.770,239.279 183.635,239.180 183.678 C 239.081 183.721,237.801 183.819,236.334 183.896 M83.693 185.200 C 83.693 185.970,83.775 186.285,83.876 185.900 C 83.976 185.515,83.976 184.885,83.876 184.500 C 83.775 184.115,83.693 184.430,83.693 185.200 M316.093 185.200 C 316.093 185.970,316.175 186.285,316.276 185.900 C 316.376 185.515,316.376 184.885,316.276 184.500 C 316.175 184.115,316.093 184.430,316.093 185.200 M171.777 196.400 C 171.777 202.890,171.832 205.545,171.899 202.300 C 171.966 199.055,171.966 193.745,171.899 190.500 C 171.832 187.255,171.777 189.910,171.777 196.400 M228.177 196.400 C 228.177 202.890,228.232 205.545,228.299 202.300 C 228.366 199.055,228.366 193.745,228.299 190.500 C 228.232 187.255,228.177 189.910,228.177 196.400 M83.293 188.000 C 83.293 188.770,83.375 189.085,83.476 188.700 C 83.576 188.315,83.576 187.685,83.476 187.300 C 83.375 186.915,83.293 187.230,83.293 188.000 M316.493 188.000 C 316.493 188.770,316.575 189.085,316.676 188.700 C 316.776 188.315,316.776 187.685,316.676 187.300 C 316.575 186.915,316.493 187.230,316.493 188.000 M94.101 188.600 C 94.105 189.480,94.187 189.793,94.283 189.295 C 94.379 188.798,94.375 188.078,94.275 187.695 C 94.175 187.313,94.096 187.720,94.101 188.600 M305.701 188.600 C 305.705 189.480,305.787 189.793,305.883 189.295 C 305.979 188.798,305.975 188.078,305.875 187.695 C 305.775 187.313,305.696 187.720,305.701 188.600 M82.914 193.400 C 82.917 194.500,82.995 194.903,83.087 194.295 C 83.179 193.686,83.177 192.786,83.082 192.295 C 82.987 191.803,82.911 192.300,82.914 193.400 M93.724 193.800 C 93.726 195.120,93.801 195.612,93.890 194.893 C 93.979 194.174,93.977 193.094,93.886 192.493 C 93.795 191.892,93.722 192.480,93.724 193.800 M306.124 193.800 C 306.126 195.120,306.201 195.612,306.290 194.893 C 306.379 194.174,306.377 193.094,306.286 192.493 C 306.195 191.892,306.122 192.480,306.124 193.800 M316.914 193.400 C 316.917 194.500,316.995 194.903,317.087 194.295 C 317.179 193.686,317.177 192.786,317.082 192.295 C 316.987 191.803,316.911 192.300,316.914 193.400 M93.724 206.200 C 93.726 207.520,93.801 208.012,93.890 207.293 C 93.979 206.574,93.977 205.494,93.886 204.893 C 93.795 204.292,93.722 204.880,93.724 206.200 M306.124 206.200 C 306.126 207.520,306.201 208.012,306.290 207.293 C 306.379 206.574,306.377 205.494,306.286 204.893 C 306.195 204.292,306.122 204.880,306.124 206.200 M82.914 206.600 C 82.917 207.700,82.995 208.103,83.087 207.495 C 83.179 206.886,83.177 205.986,83.082 205.495 C 82.987 205.003,82.911 205.500,82.914 206.600 M316.914 206.600 C 316.917 207.700,316.995 208.103,317.087 207.495 C 317.179 206.886,317.177 205.986,317.082 205.495 C 316.987 205.003,316.911 205.500,316.914 206.600 M94.101 211.400 C 94.105 212.280,94.187 212.593,94.283 212.095 C 94.379 211.598,94.375 210.878,94.275 210.495 C 94.175 210.113,94.096 210.520,94.101 211.400 M305.701 211.400 C 305.705 212.280,305.787 212.593,305.883 212.095 C 305.979 211.598,305.975 210.878,305.875 210.495 C 305.775 210.113,305.696 210.520,305.701 211.400 M83.293 212.000 C 83.293 212.770,83.375 213.085,83.476 212.700 C 83.576 212.315,83.576 211.685,83.476 211.300 C 83.375 210.915,83.293 211.230,83.293 212.000 M316.493 212.000 C 316.493 212.770,316.575 213.085,316.676 212.700 C 316.776 212.315,316.776 211.685,316.676 211.300 C 316.575 210.915,316.493 211.230,316.493 212.000 M83.693 214.800 C 83.693 215.570,83.775 215.885,83.876 215.500 C 83.976 215.115,83.976 214.485,83.876 214.100 C 83.775 213.715,83.693 214.030,83.693 214.800 M316.093 214.800 C 316.093 215.570,316.175 215.885,316.276 215.500 C 316.376 215.115,316.376 214.485,316.276 214.100 C 316.175 213.715,316.093 214.030,316.093 214.800 M158.091 238.500 C 158.041 250.765,158.135 260.800,158.300 260.800 C 158.572 260.800,158.568 244.057,158.290 224.000 C 158.231 219.710,158.141 226.235,158.091 238.500 M241.507 238.600 C 241.448 250.810,241.535 260.800,241.700 260.800 C 241.865 260.800,242.000 250.810,242.000 238.600 C 242.000 226.390,241.913 216.400,241.807 216.400 C 241.700 216.400,241.565 226.390,241.507 238.600 M162.888 237.500 C 162.937 246.465,163.026 251.190,163.087 248.000 C 163.367 233.212,163.373 221.199,163.100 221.200 C 162.935 221.200,162.840 228.535,162.888 237.500 M236.702 231.700 C 236.757 237.475,236.853 244.810,236.913 248.000 C 236.974 251.190,237.063 246.465,237.112 237.500 C 237.160 228.535,237.065 221.200,236.900 221.200 C 236.735 221.200,236.646 225.925,236.702 231.700 M84.868 222.600 C 84.862 223.040,85.011 223.760,85.200 224.200 C 85.638 225.219,85.638 224.168,85.200 222.800 C 84.943 221.996,84.877 221.957,84.868 222.600 M314.650 223.250 C 314.509 223.953,314.469 224.602,314.559 224.692 C 314.650 224.783,314.848 224.291,315.000 223.600 C 315.152 222.909,315.193 222.259,315.091 222.158 C 314.989 222.056,314.791 222.547,314.650 223.250 M123.800 274.400 C 125.106 275.720,126.265 276.800,126.375 276.800 C 126.485 276.800,125.506 275.720,124.200 274.400 C 122.894 273.080,121.735 272.000,121.625 272.000 C 121.515 272.000,122.494 273.080,123.800 274.400 M275.787 274.500 L 273.400 277.000 275.900 274.613 C 277.275 273.299,278.400 272.174,278.400 272.113 C 278.400 271.817,278.005 272.178,275.787 274.500 M187.905 305.883 C 188.402 305.979,189.122 305.975,189.505 305.875 C 189.887 305.775,189.480 305.696,188.600 305.701 C 187.720 305.705,187.407 305.787,187.905 305.883 M210.705 305.883 C 211.202 305.979,211.922 305.975,212.305 305.875 C 212.687 305.775,212.280 305.696,211.400 305.701 C 210.520 305.705,210.207 305.787,210.705 305.883 M192.707 306.290 C 193.426 306.379,194.506 306.377,195.107 306.286 C 195.708 306.195,195.120 306.122,193.800 306.124 C 192.480 306.126,191.988 306.201,192.707 306.290 M205.107 306.290 C 205.826 306.379,206.906 306.377,207.507 306.286 C 208.108 306.195,207.520 306.122,206.200 306.124 C 204.880 306.126,204.388 306.201,205.107 306.290 M175.800 314.800 C 176.240 314.989,176.960 315.138,177.400 315.132 C 178.043 315.123,178.004 315.057,177.200 314.800 C 175.832 314.362,174.781 314.362,175.800 314.800 M184.500 316.276 C 184.885 316.376,185.515 316.376,185.900 316.276 C 186.285 316.175,185.970 316.093,185.200 316.093 C 184.430 316.093,184.115 316.175,184.500 316.276 M214.100 316.276 C 214.485 316.376,215.115 316.376,215.500 316.276 C 215.885 316.175,215.570 316.093,214.800 316.093 C 214.030 316.093,213.715 316.175,214.100 316.276 M187.300 316.676 C 187.685 316.776,188.315 316.776,188.700 316.676 C 189.085 316.575,188.770 316.493,188.000 316.493 C 187.230 316.493,186.915 316.575,187.300 316.676 M211.300 316.676 C 211.685 316.776,212.315 316.776,212.700 316.676 C 213.085 316.575,212.770 316.493,212.000 316.493 C 211.230 316.493,210.915 316.575,211.300 316.676 M192.505 317.087 C 193.114 317.179,194.014 317.177,194.505 317.082 C 194.997 316.987,194.500 316.911,193.400 316.914 C 192.300 316.917,191.897 316.995,192.505 317.087 M205.705 317.087 C 206.314 317.179,207.214 317.177,207.705 317.082 C 208.197 316.987,207.700 316.911,206.600 316.914 C 205.500 316.917,205.097 316.995,205.705 317.087 " stroke="none" fill="#84a4b4" fill-rule="evenodd"></path><path id="path3" d="M197.700 82.696 C 198.965 82.775,201.035 82.775,202.300 82.696 C 203.565 82.616,202.530 82.551,200.000 82.551 C 197.470 82.551,196.435 82.616,197.700 82.696 M197.900 93.895 C 199.055 93.976,200.945 93.976,202.100 93.895 C 203.255 93.814,202.310 93.748,200.000 93.748 C 197.690 93.748,196.745 93.814,197.900 93.895 M191.700 94.276 C 192.085 94.376,192.715 94.376,193.100 94.276 C 193.485 94.175,193.170 94.093,192.400 94.093 C 191.630 94.093,191.315 94.175,191.700 94.276 M206.900 94.276 C 207.285 94.376,207.915 94.376,208.300 94.276 C 208.685 94.175,208.370 94.093,207.600 94.093 C 206.830 94.093,206.515 94.175,206.900 94.276 M116.793 117.100 L 112.600 121.400 116.900 117.207 C 119.265 114.901,121.200 112.966,121.200 112.907 C 121.200 112.618,120.687 113.106,116.793 117.100 M282.793 116.900 C 286.687 120.894,287.200 121.382,287.200 121.093 C 287.200 121.034,285.265 119.099,282.900 116.793 L 278.600 112.600 282.793 116.900 M126.975 122.900 L 125.800 124.200 127.100 123.025 C 128.312 121.930,128.584 121.600,128.275 121.600 C 128.206 121.600,127.621 122.185,126.975 122.900 M271.600 121.725 C 271.600 121.794,272.185 122.379,272.900 123.025 L 274.200 124.200 273.025 122.900 C 271.930 121.688,271.600 121.416,271.600 121.725 M122.575 127.300 L 121.400 128.600 122.700 127.425 C 123.415 126.779,124.000 126.194,124.000 126.125 C 124.000 125.816,123.670 126.088,122.575 127.300 M276.000 126.125 C 276.000 126.194,276.585 126.779,277.300 127.425 L 278.600 128.600 277.425 127.300 C 276.330 126.088,276.000 125.816,276.000 126.125 M195.085 131.887 C 195.901 132.038,195.980 132.311,196.110 135.426 L 196.250 138.802 196.225 135.301 C 196.200 131.851,196.186 131.799,195.200 131.761 C 194.361 131.729,194.343 131.749,195.085 131.887 M203.769 132.135 C 203.656 132.430,203.626 134.095,203.702 135.835 L 203.839 139.000 203.920 135.527 C 204.000 132.068,204.005 132.052,205.100 131.887 L 206.200 131.720 205.087 131.660 C 204.476 131.627,203.882 131.841,203.769 132.135 M199.100 144.282 C 199.595 144.378,200.405 144.378,200.900 144.282 C 201.395 144.187,200.990 144.109,200.000 144.109 C 199.010 144.109,198.605 144.187,199.100 144.282 M175.787 148.100 L 173.400 150.600 175.900 148.213 C 178.222 145.995,178.583 145.600,178.287 145.600 C 178.226 145.600,177.101 146.725,175.787 148.100 M223.800 148.000 C 225.106 149.320,226.265 150.400,226.375 150.400 C 226.485 150.400,225.506 149.320,224.200 148.000 C 222.894 146.680,221.735 145.600,221.625 145.600 C 221.515 145.600,222.494 146.680,223.800 148.000 M192.900 167.891 C 193.725 167.978,195.075 167.978,195.900 167.891 C 196.725 167.805,196.050 167.734,194.400 167.734 C 192.750 167.734,192.075 167.805,192.900 167.891 M204.100 167.891 C 204.925 167.978,206.275 167.978,207.100 167.891 C 207.925 167.805,207.250 167.734,205.600 167.734 C 203.950 167.734,203.275 167.805,204.100 167.891 M189.067 168.267 C 188.698 168.636,188.730 171.110,189.107 171.343 C 189.276 171.447,189.349 170.844,189.269 170.003 C 189.152 168.779,189.270 168.436,189.861 168.283 C 190.411 168.141,190.438 168.081,189.967 168.046 C 189.618 168.021,189.213 168.120,189.067 168.267 M210.139 168.260 C 210.729 168.431,210.847 168.784,210.729 170.026 C 210.647 170.880,210.733 171.427,210.920 171.240 C 211.597 170.563,211.054 168.212,210.200 168.126 C 209.506 168.057,209.498 168.074,210.139 168.260 M166.481 173.220 C 166.437 175.101,166.221 176.857,166.001 177.121 C 165.782 177.386,165.880 177.363,166.219 177.070 C 166.705 176.649,166.806 175.826,166.699 173.168 L 166.563 169.800 166.481 173.220 M233.281 173.251 C 233.214 176.125,233.317 176.794,233.900 177.251 C 234.515 177.733,234.541 177.725,234.117 177.180 C 233.852 176.839,233.574 175.039,233.499 173.180 L 233.363 169.800 233.281 173.251 M191.905 171.083 C 192.402 171.179,193.122 171.175,193.505 171.075 C 193.887 170.975,193.480 170.896,192.600 170.901 C 191.720 170.905,191.407 170.987,191.905 171.083 M206.705 171.083 C 207.202 171.179,207.922 171.175,208.305 171.075 C 208.687 170.975,208.280 170.896,207.400 170.901 C 206.520 170.905,206.207 170.987,206.705 171.083 M191.900 178.289 C 192.615 178.378,193.785 178.378,194.500 178.289 C 195.215 178.201,194.630 178.128,193.200 178.128 C 191.770 178.128,191.185 178.201,191.900 178.289 M205.500 178.289 C 206.215 178.378,207.385 178.378,208.100 178.289 C 208.815 178.201,208.230 178.128,206.800 178.128 C 205.370 178.128,204.785 178.201,205.500 178.289 M188.992 193.400 L 189.000 208.200 200.000 208.200 L 211.000 208.200 211.008 193.400 L 211.015 178.600 210.903 193.300 L 210.790 208.000 200.000 208.000 L 189.210 208.000 189.097 193.300 L 188.985 178.600 188.992 193.400 M161.061 184.500 C 161.163 184.665,162.407 184.800,163.824 184.800 L 166.400 184.800 166.400 196.388 L 166.400 207.977 161.100 208.107 L 155.800 208.238 161.200 208.219 L 166.600 208.200 166.600 196.400 L 166.600 184.600 163.737 184.400 C 162.163 184.290,160.958 184.335,161.061 184.500 M236.200 184.371 L 233.400 184.600 233.400 196.400 L 233.400 208.200 238.600 208.217 L 243.800 208.235 238.700 208.106 L 233.600 207.977 233.600 196.388 L 233.600 184.800 236.176 184.800 C 237.593 184.800,238.864 184.620,239.000 184.400 C 239.136 184.180,239.192 184.032,239.124 184.071 C 239.056 184.109,237.740 184.244,236.200 184.371 M94.093 192.400 C 94.093 193.170,94.175 193.485,94.276 193.100 C 94.376 192.715,94.376 192.085,94.276 191.700 C 94.175 191.315,94.093 191.630,94.093 192.400 M305.693 192.400 C 305.693 193.170,305.775 193.485,305.876 193.100 C 305.976 192.715,305.976 192.085,305.876 191.700 C 305.775 191.315,305.693 191.630,305.693 192.400 M82.551 200.000 C 82.551 202.530,82.616 203.565,82.696 202.300 C 82.775 201.035,82.775 198.965,82.696 197.700 C 82.616 196.435,82.551 197.470,82.551 200.000 M317.351 200.000 C 317.351 202.530,317.416 203.565,317.496 202.300 C 317.575 201.035,317.575 198.965,317.496 197.700 C 317.416 196.435,317.351 197.470,317.351 200.000 M93.748 200.000 C 93.748 202.310,93.814 203.255,93.895 202.100 C 93.976 200.945,93.976 199.055,93.895 197.900 C 93.814 196.745,93.748 197.690,93.748 200.000 M306.148 200.000 C 306.148 202.310,306.214 203.255,306.295 202.100 C 306.376 200.945,306.376 199.055,306.295 197.900 C 306.214 196.745,306.148 197.690,306.148 200.000 M94.093 207.600 C 94.093 208.370,94.175 208.685,94.276 208.300 C 94.376 207.915,94.376 207.285,94.276 206.900 C 94.175 206.515,94.093 206.830,94.093 207.600 M305.693 207.600 C 305.693 208.370,305.775 208.685,305.876 208.300 C 305.976 207.915,305.976 207.285,305.876 206.900 C 305.775 206.515,305.693 206.830,305.693 207.600 M175.280 208.298 C 177.194 208.371,180.434 208.371,182.480 208.298 C 184.526 208.226,182.960 208.166,179.000 208.165 C 175.040 208.165,173.366 208.224,175.280 208.298 M217.280 208.298 C 219.194 208.371,222.434 208.371,224.480 208.298 C 226.526 208.226,224.960 208.166,221.000 208.165 C 217.040 208.165,215.366 208.224,217.280 208.298 M177.700 213.900 C 189.965 213.959,210.035 213.959,222.300 213.900 C 234.565 213.841,224.530 213.793,200.000 213.793 C 175.470 213.793,165.435 213.841,177.700 213.900 M157.787 238.800 C 157.787 251.010,157.838 256.005,157.900 249.900 C 157.962 243.795,157.962 233.805,157.900 227.700 C 157.838 221.595,157.787 226.590,157.787 238.800 M242.187 238.800 C 242.187 251.010,242.238 256.005,242.300 249.900 C 242.362 243.795,242.362 233.805,242.300 227.700 C 242.238 221.595,242.187 226.590,242.187 238.800 M121.600 271.725 C 121.600 271.794,122.185 272.379,122.900 273.025 L 124.200 274.200 123.025 272.900 C 121.930 271.688,121.600 271.416,121.600 271.725 M276.975 272.900 L 275.800 274.200 277.100 273.025 C 277.815 272.379,278.400 271.794,278.400 271.725 C 278.400 271.416,278.070 271.688,276.975 272.900 M116.793 282.900 C 119.099 285.265,121.034 287.200,121.093 287.200 C 121.382 287.200,120.894 286.687,116.900 282.793 L 112.600 278.600 116.793 282.900 M282.793 283.100 L 278.600 287.400 282.900 283.207 C 285.265 280.901,287.200 278.966,287.200 278.907 C 287.200 278.618,286.687 279.106,282.793 283.100 M191.700 305.876 C 192.085 305.976,192.715 305.976,193.100 305.876 C 193.485 305.775,193.170 305.693,192.400 305.693 C 191.630 305.693,191.315 305.775,191.700 305.876 M206.900 305.876 C 207.285 305.976,207.915 305.976,208.300 305.876 C 208.685 305.775,208.370 305.693,207.600 305.693 C 206.830 305.693,206.515 305.775,206.900 305.876 M197.900 306.295 C 199.055 306.376,200.945 306.376,202.100 306.295 C 203.255 306.214,202.310 306.148,200.000 306.148 C 197.690 306.148,196.745 306.214,197.900 306.295 M197.700 317.496 C 198.965 317.575,201.035 317.575,202.300 317.496 C 203.565 317.416,202.530 317.351,200.000 317.351 C 197.470 317.351,196.435 317.416,197.700 317.496 " stroke="none" fill="#648ca4" fill-rule="evenodd"></path><path id="path4" d="M197.100 124.697 C 198.695 124.773,201.305 124.773,202.900 124.697 C 204.495 124.621,203.190 124.559,200.000 124.559 C 196.810 124.559,195.505 124.621,197.100 124.697 M194.700 171.082 C 195.195 171.178,196.005 171.178,196.500 171.082 C 196.995 170.987,196.590 170.909,195.600 170.909 C 194.610 170.909,194.205 170.987,194.700 171.082 M203.500 171.082 C 203.995 171.178,204.805 171.178,205.300 171.082 C 205.795 170.987,205.390 170.909,204.400 170.909 C 203.410 170.909,203.005 170.987,203.500 171.082 M181.700 221.500 C 191.765 221.559,208.235 221.559,218.300 221.500 C 228.365 221.440,220.130 221.392,200.000 221.392 C 179.870 221.392,171.635 221.440,181.700 221.500 " stroke="none" fill="#7494ac" fill-rule="evenodd"></path></g></svg>