{"accessors":[{"bufferView":0,"byteOffset":0,"componentType":5126,"count":90,"max":[0.999987602233887,0.0864052549004555,0.999999642372131],"min":[-1.00001239776611,-0.09999999403954,-1.00000035762787],"normalized":false,"type":"VEC3"},{"bufferView":1,"byteOffset":0,"componentType":5126,"count":90,"max":[1,0.55222088098526,0.999604642391205,1],"min":[-0.97181451320648,-0.62411451339722,-0.61147826910019,-1],"normalized":false,"type":"VEC4"},{"bufferView":2,"byteOffset":0,"componentType":5126,"count":90,"max":[1,1,1],"min":[-1,-0.34121617674828,-1],"normalized":false,"type":"VEC3"},{"bufferView":3,"byteOffset":0,"componentType":5126,"count":90,"max":[0.722384512424469,0.208086907863617],"min":[0.645253777503967,0.0144502520561218],"normalized":false,"type":"VEC2"},{"bufferView":4,"byteOffset":0,"componentType":5123,"count":135,"max":[89],"min":[0],"normalized":false,"type":"SCALAR"},{"bufferView":5,"byteOffset":0,"componentType":5126,"count":62,"max":[0.999987602233887,0.0886348262429237,0.999999761581421],"min":[-1.00001239776611,-0.09999999403954,-1.00000023841858],"normalized":false,"type":"VEC3"},{"bufferView":6,"byteOffset":0,"componentType":5126,"count":62,"max":[1,0.275532454252243,0.98549473285675,1],"min":[-0.9889417886734,-0.48793938755989,-0.99684125185013,-1],"normalized":false,"type":"VEC4"},{"bufferView":7,"byteOffset":0,"componentType":5126,"count":62,"max":[1,1,1],"min":[-1,-0.34120216965675,-1],"normalized":false,"type":"VEC3"},{"bufferView":8,"byteOffset":0,"componentType":5126,"count":62,"max":[0.72020423412323,0.208086907863617],"min":[0.633084237575531,0.0144502520561218],"normalized":false,"type":"VEC2"},{"bufferView":9,"byteOffset":0,"componentType":5123,"count":108,"max":[61],"min":[0],"normalized":false,"type":"SCALAR"},{"bufferView":10,"byteOffset":0,"componentType":5126,"count":742,"max":[0.999987602233887,0.195475816726685,0.999999642372131],"min":[-1.00001239776611,-0.09999999403954,-1.00000035762787],"normalized":false,"type":"VEC3"},{"bufferView":11,"byteOffset":0,"componentType":5126,"count":742,"max":[1,0.815158188343048,0.999604642391205,1],"min":[-0.99806421995163,-0.88619488477707,-0.99717766046524,-1],"normalized":false,"type":"VEC4"},{"bufferView":12,"byteOffset":0,"componentType":5126,"count":742,"max":[1,1,1],"min":[-1,-0.93668609857559,-1],"normalized":false,"type":"VEC3"},{"bufferView":13,"byteOffset":0,"componentType":5126,"count":742,"max":[0.722384512424469,0.704214811325073],"min":[0.0323514938354492,0.0144502520561218],"normalized":false,"type":"VEC2"},{"bufferView":14,"byteOffset":0,"componentType":5123,"count":1248,"max":[533],"min":[0],"normalized":false,"type":"SCALAR"}],"asset":{"generator":"Godot Engine v4.3.stable.official@77dcf97d82cbfe4e4615475fa52ca03da645dbd8","version":"2.0"},"bufferViews":[{"buffer":0,"byteLength":1080,"byteOffset":0,"byteStride":12,"target":34962},{"buffer":0,"byteLength":1440,"byteOffset":1080,"byteStride":16,"target":34962},{"buffer":0,"byteLength":1080,"byteOffset":2520,"byteStride":12,"target":34962},{"buffer":0,"byteLength":720,"byteOffset":3600,"byteStride":8,"target":34962},{"buffer":0,"byteLength":270,"byteOffset":4320,"target":34963},{"buffer":0,"byteLength":744,"byteOffset":4592,"byteStride":12,"target":34962},{"buffer":0,"byteLength":992,"byteOffset":5336,"byteStride":16,"target":34962},{"buffer":0,"byteLength":744,"byteOffset":6328,"byteStride":12,"target":34962},{"buffer":0,"byteLength":496,"byteOffset":7072,"byteStride":8,"target":34962},{"buffer":0,"byteLength":216,"byteOffset":7568,"target":34963},{"buffer":0,"byteLength":8904,"byteOffset":7784,"byteStride":12,"target":34962},{"buffer":0,"byteLength":11872,"byteOffset":16688,"byteStride":16,"target":34962},{"buffer":0,"byteLength":8904,"byteOffset":28560,"byteStride":12,"target":34962},{"buffer":0,"byteLength":5936,"byteOffset":37464,"byteStride":8,"target":34962},{"buffer":0,"byteLength":2496,"byteOffset":43400,"target":34963}],"buffers":[{"byteLength":45896,"uri":"floor_dirt0.bin"}],"extensions":{"OMI_physics_shape":{"shapes":[{"box":{"size":[2,0.125,2]},"type":"box"}]}},"extensionsUsed":["GODOT_single_root","OMI_physics_body","OMI_physics_shape"],"images":[{"uri":"textures%2Ftexture_albedo000.png"},{"uri":"textures%2Ftexture_albedo002.png"},{"uri":"textures%2Ftexture_albedo003.png"}],"materials":[{"extensions":{},"name":"texture","pbrMetallicRoughness":{"baseColorFactor":[0.99999988079071,0.99999988079071,0.99999988079071,1],"baseColorTexture":{"index":0},"metallicFactor":0,"roughnessFactor":0.449999988079071}},{"extensions":{},"name":"texture2","pbrMetallicRoughness":{"baseColorFactor":[0.99999988079071,0.99999988079071,0.99999988079071,1],"baseColorTexture":{"index":1},"metallicFactor":0,"roughnessFactor":0.449999988079071}},{"extensions":{},"name":"texture3","pbrMetallicRoughness":{"baseColorFactor":[0.99999988079071,0.99999988079071,0.99999988079071,1],"baseColorTexture":{"index":2},"metallicFactor":0,"roughnessFactor":0.449999988079071}}],"meshes":[{"extras":{"targetNames":[]},"primitives":[{"attributes":{"NORMAL":2,"POSITION":0,"TANGENT":1,"TEXCOORD_0":3},"indices":4,"material":0,"mode":4}]},{"extras":{"targetNames":[]},"primitives":[{"attributes":{"NORMAL":7,"POSITION":5,"TANGENT":6,"TEXCOORD_0":8},"indices":9,"material":1,"mode":4}]},{"extras":{"targetNames":[]},"primitives":[{"attributes":{"NORMAL":12,"POSITION":10,"TANGENT":11,"TEXCOORD_0":13},"indices":14,"material":2,"mode":4}]}],"nodes":[{"children":[1,4,7],"name":"Node3D"},{"children":[2],"mesh":0,"name":"floor_dirt_small_A"},{"children":[3],"extensions":{"OMI_physics_body":{"motion":{"type":"static"}}},"name":"StaticBody3D"},{"extensions":{"OMI_physics_body":{"collider":{"shape":0}}},"name":"CollisionShape3D","translation":[0,-0.04300000146031,0]},{"children":[5],"mesh":1,"name":"floor_dirt_small_B"},{"children":[6],"extensions":{"OMI_physics_body":{"motion":{"type":"static"}}},"name":"StaticBody3D2"},{"extensions":{"OMI_physics_body":{"collider":{"shape":0}}},"name":"CollisionShape3D2","translation":[0,-0.04300000146031,0]},{"children":[8],"mesh":2,"name":"floor_dirt_small_weeds"},{"children":[9],"extensions":{"OMI_physics_body":{"motion":{"type":"static"}}},"name":"StaticBody3D3"},{"extensions":{"OMI_physics_body":{"collider":{"shape":0}}},"name":"CollisionShape3D3","translation":[0,-0.04300000146031,0]}],"samplers":[{"magFilter":9729,"minFilter":9987,"wrapS":10497,"wrapT":10497}],"scene":0,"scenes":[{"nodes":[0]}],"textures":[{"sampler":0,"source":0},{"sampler":0,"source":1},{"sampler":0,"source":2}]}