{
    "asset" : {
        "generator" : "Khronos glTF Blender I/O v1.4.40",
        "version" : "2.0"
    },
    "scene" : 0,
    "scenes" : [
        {
            "name" : "Scene",
            "nodes" : [
                1
            ]
        }
    ],
    "nodes" : [
        {
            "mesh" : 0,
            "name" : "floor_dirt_small_A",
            "scale" : [
                1.288235068321228,
                0.644117534160614,
                1.288235068321228
            ]
        },
        {
            "children" : [
                0
            ],
            "name" : "Stone_Floor.001",
            "scale" : [
                1.5525116920471191,
                1.5525116920471191,
                1.5525116920471191
            ]
        }
    ],
    "materials" : [
        {
            "name" : "texture",
            "pbrMetallicRoughness" : {
                "baseColorTexture" : {
                    "index" : 0,
                    "texCoord" : 0
                },
                "metallicFactor" : 0,
                "roughnessFactor" : 0.44999998807907104
            }
        },
        {
            "name" : "HalloweenBits.001",
            "pbrMetallicRoughness" : {
                "baseColorFactor" : [
                    0.9999998807907104,
                    0.9999998807907104,
                    0.9999998807907104,
                    1
                ],
                "baseColorTexture" : {
                    "index" : 1,
                    "texCoord" : 0
                },
                "metallicFactor" : 0,
                "roughnessFactor" : 0.6000000238418579
            }
        },
        {
            "name" : "HalloweenBits2.001",
            "pbrMetallicRoughness" : {
                "baseColorFactor" : [
                    0.9999998807907104,
                    0.9999998807907104,
                    0.9999998807907104,
                    1
                ],
                "baseColorTexture" : {
                    "index" : 2,
                    "texCoord" : 0
                },
                "metallicFactor" : 0,
                "roughnessFactor" : 0.6000000238418579
            }
        },
        {
            "name" : "HalloweenBits3.001",
            "pbrMetallicRoughness" : {
                "baseColorFactor" : [
                    0.9999998807907104,
                    0.9999998807907104,
                    0.9999998807907104,
                    1
                ],
                "baseColorTexture" : {
                    "index" : 3,
                    "texCoord" : 0
                },
                "metallicFactor" : 0,
                "roughnessFactor" : 0.6000000238418579
            }
        }
    ],
    "meshes" : [
        {
            "name" : "floor_dirt_small_A",
            "primitives" : [
                {
                    "attributes" : {
                        "POSITION" : 0,
                        "NORMAL" : 1,
                        "TEXCOORD_0" : 2
                    },
                    "indices" : 3,
                    "material" : 0
                },
                {
                    "attributes" : {
                        "POSITION" : 4,
                        "NORMAL" : 5,
                        "TEXCOORD_0" : 6
                    },
                    "indices" : 7,
                    "material" : 1
                },
                {
                    "attributes" : {
                        "POSITION" : 8,
                        "NORMAL" : 9,
                        "TEXCOORD_0" : 10
                    },
                    "indices" : 11,
                    "material" : 2
                },
                {
                    "attributes" : {
                        "POSITION" : 12,
                        "NORMAL" : 13,
                        "TEXCOORD_0" : 14
                    },
                    "indices" : 15,
                    "material" : 3
                }
            ]
        }
    ],
    "textures" : [
        {
            "sampler" : 0,
            "source" : 0
        },
        {
            "sampler" : 0,
            "source" : 1
        },
        {
            "sampler" : 0,
            "source" : 2
        },
        {
            "sampler" : 0,
            "source" : 3
        }
    ],
    "images" : [
        {
            "bufferView" : 4,
            "mimeType" : "image/png",
            "name" : "dungeon_texture"
        },
        {
            "bufferView" : 9,
            "mimeType" : "image/png",
            "name" : "HalloweenBits_albedo000"
        },
        {
            "bufferView" : 14,
            "mimeType" : "image/png",
            "name" : "HalloweenBits_albedo002"
        },
        {
            "bufferView" : 19,
            "mimeType" : "image/png",
            "name" : "HalloweenBits_albedo003"
        }
    ],
    "accessors" : [
        {
            "bufferView" : 0,
            "componentType" : 5126,
            "count" : 95,
            "max" : [
                0.9999876022338867,
                0.08640525490045547,
                0.9999996423721313
            ],
            "min" : [
                -1.0000123977661133,
                -0.09999999403953552,
                -1.0000003576278687
            ],
            "type" : "VEC3"
        },
        {
            "bufferView" : 1,
            "componentType" : 5126,
            "count" : 95,
            "type" : "VEC3"
        },
        {
            "bufferView" : 2,
            "componentType" : 5126,
            "count" : 95,
            "type" : "VEC2"
        },
        {
            "bufferView" : 3,
            "componentType" : 5123,
            "count" : 135,
            "type" : "SCALAR"
        },
        {
            "bufferView" : 5,
            "componentType" : 5126,
            "count" : 489,
            "max" : [
                0.937138020992279,
                0.0400019995868206,
                0.9452679753303528
            ],
            "min" : [
                -0.9660519957542419,
                -0.05999999865889549,
                -0.9384920001029968
            ],
            "type" : "VEC3"
        },
        {
            "bufferView" : 6,
            "componentType" : 5126,
            "count" : 489,
            "type" : "VEC3"
        },
        {
            "bufferView" : 7,
            "componentType" : 5126,
            "count" : 489,
            "type" : "VEC2"
        },
        {
            "bufferView" : 8,
            "componentType" : 5123,
            "count" : 1083,
            "type" : "SCALAR"
        },
        {
            "bufferView" : 10,
            "componentType" : 5126,
            "count" : 476,
            "max" : [
                1.039678692817688,
                -2.2098422050476074e-05,
                1.0099087953567505
            ],
            "min" : [
                -1.017853856086731,
                -0.10907310247421265,
                -1.0144600868225098
            ],
            "type" : "VEC3"
        },
        {
            "bufferView" : 11,
            "componentType" : 5126,
            "count" : 476,
            "type" : "VEC3"
        },
        {
            "bufferView" : 12,
            "componentType" : 5126,
            "count" : 476,
            "type" : "VEC2"
        },
        {
            "bufferView" : 13,
            "componentType" : 5123,
            "count" : 1110,
            "type" : "SCALAR"
        },
        {
            "bufferView" : 15,
            "componentType" : 5126,
            "count" : 531,
            "max" : [
                0.9317132234573364,
                0.01818941906094551,
                0.9131231904029846
            ],
            "min" : [
                -0.9249091744422913,
                -0.0818103551864624,
                -0.9368892312049866
            ],
            "type" : "VEC3"
        },
        {
            "bufferView" : 16,
            "componentType" : 5126,
            "count" : 531,
            "type" : "VEC3"
        },
        {
            "bufferView" : 17,
            "componentType" : 5126,
            "count" : 531,
            "type" : "VEC2"
        },
        {
            "bufferView" : 18,
            "componentType" : 5123,
            "count" : 1179,
            "type" : "SCALAR"
        }
    ],
    "bufferViews" : [
        {
            "buffer" : 0,
            "byteLength" : 1140,
            "byteOffset" : 0
        },
        {
            "buffer" : 0,
            "byteLength" : 1140,
            "byteOffset" : 1140
        },
        {
            "buffer" : 0,
            "byteLength" : 760,
            "byteOffset" : 2280
        },
        {
            "buffer" : 0,
            "byteLength" : 270,
            "byteOffset" : 3040
        },
        {
            "buffer" : 0,
            "byteLength" : 127737,
            "byteOffset" : 3312
        },
        {
            "buffer" : 0,
            "byteLength" : 5868,
            "byteOffset" : 131052
        },
        {
            "buffer" : 0,
            "byteLength" : 5868,
            "byteOffset" : 136920
        },
        {
            "buffer" : 0,
            "byteLength" : 3912,
            "byteOffset" : 142788
        },
        {
            "buffer" : 0,
            "byteLength" : 2166,
            "byteOffset" : 146700
        },
        {
            "buffer" : 0,
            "byteLength" : 58886,
            "byteOffset" : 148868
        },
        {
            "buffer" : 0,
            "byteLength" : 5712,
            "byteOffset" : 207756
        },
        {
            "buffer" : 0,
            "byteLength" : 5712,
            "byteOffset" : 213468
        },
        {
            "buffer" : 0,
            "byteLength" : 3808,
            "byteOffset" : 219180
        },
        {
            "buffer" : 0,
            "byteLength" : 2220,
            "byteOffset" : 222988
        },
        {
            "buffer" : 0,
            "byteLength" : 58886,
            "byteOffset" : 225208
        },
        {
            "buffer" : 0,
            "byteLength" : 6372,
            "byteOffset" : 284096
        },
        {
            "buffer" : 0,
            "byteLength" : 6372,
            "byteOffset" : 290468
        },
        {
            "buffer" : 0,
            "byteLength" : 4248,
            "byteOffset" : 296840
        },
        {
            "buffer" : 0,
            "byteLength" : 2358,
            "byteOffset" : 301088
        },
        {
            "buffer" : 0,
            "byteLength" : 58886,
            "byteOffset" : 303448
        }
    ],
    "samplers" : [
        {
            "magFilter" : 9729,
            "minFilter" : 9986
        }
    ],
    "buffers" : [
        {
            "byteLength" : 362336,
            "uri" : "data:application/octet-stream;base64,"
        }
    ]
}
